<svg xmlns="http://www.w3.org/2000/svg" xmlns:xlink="http://www.w3.org/1999/xlink" width="324" height="72"><path fill="#1E90FF" d="M5.34 59.70L5.34 9.28L10.69 9.28L10.69 29.36Q15.08 24.12 20.18 24.12L20.18 24.12Q25.49 24.12 28.83 28.72L28.83 28.72Q32.34 33.64 32.34 42.26L32.34 42.26Q32.34 48.30 30.48 52.91L30.48 52.91Q27.14 61.14 20.04 61.14L20.04 61.14Q14.17 61.14 10.62 55.23L10.62 55.23L9.25 59.70L5.34 59.70ZM18.88 29.21L18.88 29.21Q14.77 29.21 12.41 33.40L12.41 33.40Q10.48 36.84 10.48 42.26L10.48 42.26Q10.48 48.13 12.55 51.86L12.55 51.86Q14.91 56.04 18.95 56.04L18.95 56.04Q22.50 56.04 24.57 52.42L24.57 52.42Q26.72 48.76 26.72 42.26L26.72 42.26Q26.72 35.89 24.26 32.38L24.26 32.38Q22.22 29.21 18.88 29.21ZM46.76 35.47L40.99 35.47Q42.40 24.08 54.04 24.08L54.04 24.08Q65.74 24.08 65.74 36.63L65.74 36.63L65.74 53.82Q65.74 55.86 67.61 55.86L67.61 55.86Q68.24 55.86 69.33 55.62L69.33 55.62L69.33 60.68Q67.89 61.03 65.88 61.03L65.88 61.03Q61.14 61.03 60.50 55.72L60.50 55.72Q55.62 61.03 49.78 61.03L49.78 61.03Q45.95 61.03 43.49 59.03L43.49 59.03Q40.25 56.43 40.25 51.33L40.25 51.33Q40.25 39.48 60.57 38.07L60.57 38.07L60.57 36.63Q60.57 28.90 54.04 28.90L54.04 28.90Q47.29 28.90 46.76 35.47L46.76 35.47ZM60.57 47.36L60.57 42.61Q45.53 43.35 45.53 51.05L45.53 51.05Q45.53 56.21 50.63 56.21L50.63 56.21Q54.11 56.21 57.41 53.54L57.41 53.54Q60.57 51.05 60.57 47.36L60.57 47.36ZM85.99 25.49L85.99 16.21L91.48 16.21L91.48 25.49L99.95 25.49L99.95 30.66L91.48 30.66L91.48 52.45Q91.48 54.91 94.22 54.91L94.22 54.91Q97.56 54.91 100.44 54.35L100.44 54.35L100.44 59.73Q96.19 60.33 93.13 60.33L93.13 60.33Q85.99 60.33 85.99 53.19L85.99 53.19L85.99 30.66L79.21 30.66L79.21 25.49L85.99 25.49ZM133.84 48.23L139.68 48.23Q136.86 61.14 126.07 61.14L126.07 61.14Q119.57 61.14 115.77 55.72L115.77 55.72Q112.32 50.77 112.32 42.61L112.32 42.61Q112.32 34.84 115.56 29.88L115.56 29.88Q119.36 24.12 126 24.12L126 24.12Q136.30 24.12 139.11 35.79L139.11 35.79L133.35 35.79Q131.84 29.14 126.07 29.14L126.07 29.14Q122.41 29.14 120.27 32.52L120.27 32.52Q117.95 36.14 117.95 42.61L117.95 42.61Q117.95 47.95 119.53 51.36L119.53 51.36Q121.68 56.11 126.07 56.11L126.07 56.11Q132.47 56.11 133.84 48.23L133.84 48.23ZM149.27 59.70L149.27 9.28L154.62 9.28L154.62 29.36Q159.86 24.12 165.02 24.12L165.02 24.12Q170.89 24.12 173.60 29.29L173.60 29.29Q175.11 32.20 175.11 36.35L175.11 36.35L175.11 59.70L169.77 59.70L169.77 37.93Q169.77 29.21 164.18 29.21L164.18 29.21Q160.42 29.21 157.57 31.96L157.57 31.96Q154.62 34.91 154.62 38.71L154.62 38.71L154.62 59.70L149.27 59.70ZM185.77 25.49L194.48 25.49L194.48 16.56Q194.48 9.28 201.90 9.28L201.90 9.28L209.67 9.28L209.67 14.31L202.92 14.31Q199.97 14.31 199.97 16.98L199.97 16.98L199.97 25.49L209.67 25.49L209.67 30.52L199.97 30.52L199.97 59.70L194.48 59.70L194.48 30.52L185.77 30.52L185.77 25.49ZM230.84 15.75L230.84 9.28L237.16 9.28L237.16 15.75L230.84 15.75ZM231.19 59.70L231.19 25.49L236.81 25.49L236.81 59.70L231.19 59.70ZM272.81 9.28L272.81 51.82Q272.81 54.91 275.77 54.91L275.77 54.91Q278.19 54.91 281.07 54.35L281.07 54.35L281.07 59.73Q276.82 60.33 274.82 60.33L274.82 60.33Q267.19 60.33 267.19 52.84L267.19 52.84L267.19 9.28L272.81 9.28ZM314.05 49.08L319.68 49.08Q316.55 61.10 306.07 61.10L306.07 61.10Q299.57 61.10 295.77 55.69L295.77 55.69Q292.32 50.73 292.32 42.61L292.32 42.61Q292.32 34.84 295.56 29.88L295.56 29.88Q299.36 24.12 306 24.12L306 24.12Q318.97 24.12 319.82 43.70L319.82 43.70L297.74 43.70Q298.16 56.29 306.14 56.29L306.14 56.29Q312.47 56.29 314.05 49.08L314.05 49.08ZM297.95 39.09L314.05 39.09Q312.89 28.93 306 28.93L306 28.93Q299.36 28.93 297.95 39.09L297.95 39.09Z"/></svg>