<svg xmlns="http://www.w3.org/2000/svg" xmlns:xlink="http://www.w3.org/1999/xlink" width="180" height="72"><path fill="#1E90FF" d="M25.84 48.23L31.68 48.23Q28.86 61.14 18.07 61.14L18.07 61.14Q11.57 61.14 7.77 55.72L7.77 55.72Q4.32 50.77 4.32 42.61L4.32 42.61Q4.32 34.84 7.56 29.88L7.56 29.88Q11.36 24.12 18 24.12L18 24.12Q28.30 24.12 31.11 35.79L31.11 35.79L25.35 35.79Q23.84 29.14 18.07 29.14L18.07 29.14Q14.41 29.14 12.27 32.52L12.27 32.52Q9.95 36.14 9.95 42.61L9.95 42.61Q9.95 47.95 11.53 51.36L11.53 51.36Q13.68 56.11 18.07 56.11L18.07 56.11Q24.47 56.11 25.84 48.23L25.84 48.23ZM39.30 25.49L43.10 25.49L43.91 28.16Q46.97 24.12 50.31 24.12L50.31 24.12Q53.65 24.12 55.48 28.16L55.48 28.16Q58.68 24.12 62.51 24.12L62.51 24.12Q68.70 24.12 68.70 32.77L68.70 32.77L68.70 59.70L63.53 59.70L63.53 33.75Q63.53 28.72 61.00 28.72L61.00 28.72Q58.71 28.72 57.30 31.25L57.30 31.25Q56.50 32.84 56.50 34.70L56.50 34.70L56.50 59.70L51.47 59.70L51.47 33.68Q51.47 28.72 48.87 28.72L48.87 28.72Q44.47 28.72 44.47 34.63L44.47 34.63L44.47 59.70L39.30 59.70L39.30 25.49ZM82.76 35.47L76.99 35.47Q78.40 24.08 90.04 24.08L90.04 24.08Q101.74 24.08 101.74 36.63L101.74 36.63L101.74 53.82Q101.74 55.86 103.61 55.86L103.61 55.86Q104.24 55.86 105.33 55.62L105.33 55.62L105.33 60.68Q103.89 61.03 101.88 61.03L101.88 61.03Q97.14 61.03 96.50 55.72L96.50 55.72Q91.62 61.03 85.78 61.03L85.78 61.03Q81.95 61.03 79.49 59.03L79.49 59.03Q76.25 56.43 76.25 51.33L76.25 51.33Q76.25 39.48 96.57 38.07L96.57 38.07L96.57 36.63Q96.57 28.90 90.04 28.90L90.04 28.90Q83.29 28.90 82.76 35.47L82.76 35.47ZM96.57 47.36L96.57 42.61Q81.53 43.35 81.53 51.05L81.53 51.05Q81.53 56.21 86.63 56.21L86.63 56.21Q90.11 56.21 93.41 53.54L93.41 53.54Q96.57 51.05 96.57 47.36L96.57 47.36ZM113.70 59.70L113.70 9.28L119.04 9.28L119.04 40.18L131.63 25.49L138.34 25.49L127.48 37.65L141.15 59.70L134.44 59.70L124.14 41.45L119.04 46.93L119.04 59.70L113.70 59.70ZM170.05 49.08L175.68 49.08Q172.55 61.10 162.07 61.10L162.07 61.10Q155.57 61.10 151.77 55.69L151.77 55.69Q148.32 50.73 148.32 42.61L148.32 42.61Q148.32 34.84 151.56 29.88L151.56 29.88Q155.36 24.12 162 24.12L162 24.12Q174.97 24.12 175.82 43.70L175.82 43.70L153.74 43.70Q154.16 56.29 162.14 56.29L162.14 56.29Q168.47 56.29 170.05 49.08L170.05 49.08ZM153.95 39.09L170.05 39.09Q168.89 28.93 162 28.93L162 28.93Q155.36 28.93 153.95 39.09L153.95 39.09Z"/></svg>