<svg class="icon" style="width: 1em; height: 1em;vertical-align: middle;fill: currentColor;overflow: hidden;" viewBox="0 0 1024 1024" version="1.1" xmlns="http://www.w3.org/2000/svg" p-id="3291"><path fill="#1E90FF" d="M478.656 811.328c21.248 2.368 42.688 2.432 64 0.32v124.288h-64v-124.608z m267.776-110.208l87.552 87.68-45.184 45.184-87.68-87.552c16.64-13.44 31.808-28.672 45.312-45.312z m-470.016-1.472c13.312 16.704 28.416 32 44.992 45.568L232.512 833.92l-45.248-45.184 89.152-89.152zM512 261.056a251.008 251.008 0 1 1 0 502.016 251.008 251.008 0 0 1 0-502.016z m0 64a187.008 187.008 0 1 0 0 373.952 187.008 187.008 0 0 0 0-373.952z m423.936 153.6v64h-124.288a304.704 304.704 0 0 0-0.32-64h124.608z m-723.264 0a304.512 304.512 0 0 0-0.32 64H85.312v-64h127.36z m19.84-291.392l90.368 90.304c-16.64 13.44-31.808 28.608-45.312 45.312l-90.24-90.368 45.184-45.248z m556.224 0l45.248 45.248-88.768 88.832a302.976 302.976 0 0 0-45.568-44.928l89.088-89.152zM542.72 85.312v127.04a304.704 304.704 0 0 0-64 0.32v-127.36h64z" p-id="3292"></path></svg>