<svg xmlns="http://www.w3.org/2000/svg" xmlns:xlink="http://www.w3.org/1999/xlink" width="144" height="72"><path fill="#1E90FF" d="M20.81 9.28L20.81 51.82Q20.81 54.91 23.77 54.91L23.77 54.91Q26.19 54.91 29.07 54.35L29.07 54.35L29.07 59.73Q24.82 60.33 22.82 60.33L22.82 60.33Q15.19 60.33 15.19 52.84L15.19 52.84L15.19 9.28L20.81 9.28ZM62.05 49.08L67.68 49.08Q64.55 61.10 54.07 61.10L54.07 61.10Q47.57 61.10 43.77 55.69L43.77 55.69Q40.32 50.73 40.32 42.61L40.32 42.61Q40.32 34.84 43.56 29.88L43.56 29.88Q47.36 24.12 54 24.12L54 24.12Q66.97 24.12 67.82 43.70L67.82 43.70L45.74 43.70Q46.16 56.29 54.14 56.29L54.14 56.29Q60.47 56.29 62.05 49.08L62.05 49.08ZM45.95 39.09L62.05 39.09Q60.89 28.93 54 28.93L54 28.93Q47.36 28.93 45.95 39.09L45.95 39.09ZM76.32 49.08L82.02 49.08Q82.97 56.29 90.42 56.29L90.42 56.29Q97.91 56.29 97.91 51.01L97.91 51.01Q97.91 48.48 96.19 47.07L96.19 47.07Q94.36 45.56 89.65 43.91L89.65 43.91L88.63 43.52Q83.43 41.73 81.07 39.94L81.07 39.94Q77.70 37.30 77.70 33.57L77.70 33.57Q77.70 29.11 81.60 26.40L81.60 26.40Q84.97 24.08 89.79 24.08L89.79 24.08Q100.65 24.08 102.38 33.96L102.38 33.96L96.79 33.96Q95.91 28.69 89.72 28.69L89.72 28.69Q83.11 28.69 83.11 33.36L83.11 33.36Q83.11 36.42 91.97 39.55L91.97 39.55Q96.96 41.31 99.14 42.89L99.14 42.89Q103.39 45.91 103.39 50.87L103.39 50.87Q103.39 55.69 99.60 58.50L99.60 58.50Q96.01 61.10 90.28 61.10L90.28 61.10Q77.73 61.10 76.32 49.08L76.32 49.08ZM112.32 49.08L118.02 49.08Q118.97 56.29 126.42 56.29L126.42 56.29Q133.91 56.29 133.91 51.01L133.91 51.01Q133.91 48.48 132.19 47.07L132.19 47.07Q130.36 45.56 125.65 43.91L125.65 43.91L124.63 43.52Q119.43 41.73 117.07 39.94L117.07 39.94Q113.70 37.30 113.70 33.57L113.70 33.57Q113.70 29.11 117.60 26.40L117.60 26.40Q120.97 24.08 125.79 24.08L125.79 24.08Q136.65 24.08 138.38 33.96L138.38 33.96L132.79 33.96Q131.91 28.69 125.72 28.69L125.72 28.69Q119.11 28.69 119.11 33.36L119.11 33.36Q119.11 36.42 127.97 39.55L127.97 39.55Q132.96 41.31 135.14 42.89L135.14 42.89Q139.39 45.91 139.39 50.87L139.39 50.87Q139.39 55.69 135.60 58.50L135.60 58.50Q132.01 61.10 126.28 61.10L126.28 61.10Q113.73 61.10 112.32 49.08L112.32 49.08Z"/></svg>