<svg class="icon" style="width: 1em; height: 1em;vertical-align: middle;fill: currentColor;overflow: hidden;" viewBox="0 0 1024 1024" version="1.1" xmlns="http://www.w3.org/2000/svg" p-id="2722"><path fill="#1E90FF" d="M183.3 701.5c-4.8-8.3-15.3-11.1-23.5-6.3l-29.6 17.1c-8.2 4.8-11.1 15.3-6.3 23.5l0.2 0.3c4.8 8.2 15.3 11.1 23.5 6.3l29.6-17.1c8.2-4.8 11.1-15.3 6.3-23.5l-0.2-0.3zM132.6 512.2v-0.4c0-9.5-7.7-17.2-17.2-17.2H81.2c-9.5 0-17.2 7.7-17.2 17.2v0.4c0 9.5 7.7 17.2 17.2 17.2h34.2c9.5 0 17.2-7.7 17.2-17.2zM177.2 298.6l-29.6-17.1c-8.3-4.8-18.8-1.9-23.5 6.3l-0.2 0.3c-4.8 8.2-1.9 18.8 6.3 23.5l29.6 17.1c8.2 4.8 18.8 1.9 23.5-6.3l0.2-0.3c4.8-8.2 2-18.7-6.3-23.5zM511.8 132.6h0.3c9.5 0 17.2-7.7 17.2-17.2V81.2c0-9.5-7.7-17.2-17.2-17.2h-0.3c-9.5 0-17.2 7.7-17.2 17.2v34.2c0 9.5 7.7 17.2 17.2 17.2zM322.5 840.7l-0.3-0.2c-8.2-4.8-18.8-1.9-23.5 6.3l-17.1 29.6c-4.8 8.2-1.9 18.8 6.3 23.5l0.3 0.2c8.2 4.8 18.8 1.9 23.5-6.3l17.1-29.6c4.7-8.3 1.9-18.8-6.3-23.5zM840.7 322.5c4.8 8.2 15.3 11.1 23.5 6.3l29.6-17.1c8.2-4.8 11.1-15.3 6.3-23.5l-0.2-0.3c-4.8-8.2-15.3-11.1-23.5-6.3l-29.6 17.1c-8.2 4.8-11.1 15.3-6.3 23.5l0.2 0.3zM298.6 177.2c4.8 8.2 15.3 11.1 23.5 6.3l0.3-0.2c8.3-4.8 11.1-15.3 6.3-23.5l-17.1-29.6c-4.8-8.2-15.3-11.1-23.5-6.3l-0.3 0.2c-8.2 4.8-11.1 15.3-6.3 23.5l17.1 29.6zM736.2 124.1l-0.3-0.2c-8.2-4.8-18.8-1.9-23.5 6.3l-17.1 29.6c-4.8 8.2-1.9 18.8 6.3 23.5l0.3 0.2c8.2 4.8 18.8 1.9 23.5-6.3l17.1-29.6c4.7-8.2 1.9-18.7-6.3-23.5zM512.2 891.4h-0.3c-9.5 0-17.2 7.7-17.2 17.2v34.2c0 9.5 7.7 17.2 17.2 17.2h0.3c9.5 0 17.2-7.7 17.2-17.2v-34.2c0-9.5-7.7-17.2-17.2-17.2zM942.8 494.6h-34.1c-9.5 0-17.2 7.7-17.2 17.2v0.4c0 9.5 7.7 17.2 17.2 17.2h34.1c9.5 0 17.2-7.7 17.2-17.2v-0.4c0-9.5-7.7-17.2-17.2-17.2zM893.8 712.3l-29.6-17.1c-8.3-4.8-18.8-1.9-23.5 6.3l-0.2 0.3c-4.8 8.2-1.9 18.8 6.3 23.5l29.6 17.1c8.2 4.8 18.8 1.9 23.5-6.3l0.2-0.3c4.7-8.2 1.9-18.7-6.3-23.5zM725.4 846.8c-4.8-8.2-15.3-11.1-23.5-6.3l-0.3 0.2c-8.2 4.8-11.1 15.3-6.3 23.5l17.1 29.6c4.8 8.2 15.3 11.1 23.5 6.3l0.3-0.2c8.2-4.8 11.1-15.3 6.3-23.5l-17.1-29.6zM701.5 768.5c0.3-7.1-3.7-13.7-10.1-16.8-92.7-45.3-150.3-137.1-150.3-239.7s57.6-194.5 150.3-239.7c6.4-3.1 10.4-9.7 10.1-16.8-0.3-7.1-4.8-13.4-11.4-16-34.5-13.6-70.9-20.4-108-20.4-162.3 0-294.3 131.4-294.3 292.9 0 161.5 132 292.9 294.3 292.9 37.1 0 73.4-6.9 108-20.4 6.6-2.6 11.1-8.9 11.4-16z" p-id="2723"></path></svg>