<svg class="icon" style="width: 1em; height: 1em;vertical-align: middle;fill: currentColor;overflow: hidden;" viewBox="0 0 1024 1024" version="1.1" xmlns="http://www.w3.org/2000/svg" p-id="3505"><path fill="#1E90FF" d="M995.84 782.506667H28.16c-15.36 0-28.16-12.8-28.16-28.16C0 738.133333 12.8 725.333333 28.16 725.333333h172.373333C215.04 565.76 349.013333 441.173333 512 441.173333S808.96 565.76 823.466667 725.333333h172.373333c15.36 0 28.16 12.8 28.16 28.16 0 16.213333-12.8 29.013333-28.16 29.013334zM512 497.493333C380.586667 497.493333 272.213333 597.333333 257.706667 725.333333h508.586666C751.786667 597.333333 643.413333 497.493333 512 497.493333z m358.4 17.92a28.330667 28.330667 0 0 1-40.106667 0 28.330667 28.330667 0 0 1 0-40.106666l132.266667-132.266667c11.093333-11.093333 29.013333-11.093333 40.106667 0 11.093333 11.093333 11.093333 29.013333 0 40.106667L870.4 515.413333zM512 384c-15.36 0-28.16-12.8-28.16-28.16V128c0-15.36 12.8-28.16 28.16-28.16 15.36 0 28.16 12.8 28.16 28.16v227.84c0 15.36-12.8 28.16-28.16 28.16zM153.6 515.413333L21.333333 383.146667a28.330667 28.330667 0 0 1 0-40.106667c11.093333-11.093333 29.013333-11.093333 40.106667 0l132.266667 132.266667c11.093333 11.093333 11.093333 29.013333 0 40.106666-10.24 11.093333-29.013333 11.093333-40.106667 0z m45.226667 352.426667h625.493333c15.36 0 28.16 12.8 28.16 28.16 0 15.36-12.8 28.16-28.16 28.16H198.826667c-15.36 0-28.16-12.8-28.16-28.16 0-15.36 12.8-28.16 28.16-28.16z m0 0" p-id="3506"></path></svg>