<svg xmlns="http://www.w3.org/2000/svg" xmlns:xlink="http://www.w3.org/1999/xlink" width="216" height="72"><path fill="#1E90FF" d="M5.34 25.49L9.32 25.49L10.20 30.02Q15.01 24.12 20.18 24.12L20.18 24.12Q25.45 24.12 28.83 28.79L28.83 28.79Q32.41 33.82 32.41 41.80L32.41 41.80Q32.41 49.25 29.53 54.25L29.53 54.25Q26.12 60.15 20.11 60.15L20.11 60.15Q14.91 60.15 10.69 55.41L10.69 55.41L10.69 70.03L5.34 70.03L5.34 25.49ZM18.95 29.21L18.95 29.21Q15.43 29.21 12.97 32.73L12.97 32.73Q10.48 36.35 10.48 41.87L10.48 41.87Q10.48 46.90 12.20 50.24L12.20 50.24Q14.55 54.98 19.02 54.98L19.02 54.98Q22.57 54.98 24.64 51.61L24.64 51.61Q26.72 47.95 26.72 41.87L26.72 41.87Q26.72 36.32 24.79 32.94L24.79 32.94Q22.64 29.21 18.95 29.21ZM46.51 25.49L52.00 25.49L52.00 32.70Q58.22 26.12 65.32 24.12L65.32 24.12L65.32 30.38Q57.16 32.34 52.00 39.23L52.00 39.23L52.00 59.70L46.51 59.70L46.51 25.49ZM90.07 24.12L90.07 24.12Q96.68 24.12 100.44 29.95L100.44 29.95Q103.68 34.80 103.68 42.61L103.68 42.61Q103.68 48.48 101.74 52.91L101.74 52.91Q98.16 61.14 89.93 61.14L89.93 61.14Q83.57 61.14 79.77 55.72L79.77 55.72Q76.32 50.77 76.32 42.61L76.32 42.61Q76.32 33.82 80.30 28.79L80.30 28.79Q84.09 24.12 90.07 24.12ZM89.93 29.14L89.93 29.14Q86.06 29.14 83.88 33.19L83.88 33.19Q81.95 36.74 81.95 42.61L81.95 42.61Q81.95 48.02 83.53 51.43L83.53 51.43Q85.71 56.11 90 56.11L90 56.11Q93.94 56.11 96.12 52.07L96.12 52.07Q98.05 48.52 98.05 42.68L98.05 42.68Q98.05 36.60 96.05 33.12L96.05 33.12Q93.90 29.14 89.93 29.14ZM128.81 9.28L128.81 51.82Q128.81 54.91 131.77 54.91L131.77 54.91Q134.19 54.91 137.07 54.35L137.07 54.35L137.07 59.73Q132.82 60.33 130.82 60.33L130.82 60.33Q123.19 60.33 123.19 52.84L123.19 52.84L123.19 9.28L128.81 9.28ZM162.07 24.12L162.07 24.12Q168.68 24.12 172.44 29.95L172.44 29.95Q175.68 34.80 175.68 42.61L175.68 42.61Q175.68 48.48 173.74 52.91L173.74 52.91Q170.16 61.14 161.93 61.14L161.93 61.14Q155.57 61.14 151.77 55.72L151.77 55.72Q148.32 50.77 148.32 42.61L148.32 42.61Q148.32 33.82 152.30 28.79L152.30 28.79Q156.09 24.12 162.07 24.12ZM161.93 29.14L161.93 29.14Q158.06 29.14 155.88 33.19L155.88 33.19Q153.95 36.74 153.95 42.61L153.95 42.61Q153.95 48.02 155.53 51.43L155.53 51.43Q157.71 56.11 162 56.11L162 56.11Q165.94 56.11 168.12 52.07L168.12 52.07Q170.05 48.52 170.05 42.68L170.05 42.68Q170.05 36.60 168.05 33.12L168.05 33.12Q165.90 29.14 161.93 29.14ZM207.07 25.49L210.80 25.49L210.80 55.72Q210.80 70.03 197.65 70.03L197.65 70.03Q186.40 70.03 184.46 58.96L184.46 58.96L190.09 58.96Q191.04 65.21 197.79 65.21L197.79 65.21Q205.63 65.21 205.63 56.14L205.63 56.14L205.63 50.31Q201.87 54.70 196.56 54.70L196.56 54.70Q190.83 54.70 187.03 50.17L187.03 50.17Q183.59 45.95 183.59 39.66L183.59 39.66Q183.59 35.09 185.38 31.61L185.38 31.61Q189.18 24.12 196.84 24.12L196.84 24.12Q202.18 24.12 205.84 28.44L205.84 28.44L207.07 25.49ZM197.33 29.07L197.33 29.07Q193.36 29.07 191.00 32.59L191.00 32.59Q189.07 35.40 189.07 39.59L189.07 39.59Q189.07 43.95 191.21 46.86L191.21 46.86Q193.54 50.03 197.40 50.03L197.40 50.03Q200.60 50.03 202.82 47.57L202.82 47.57Q205.77 44.40 205.77 39.66L205.77 39.66Q205.77 34.95 203.24 31.89L203.24 31.89Q200.78 29.07 197.33 29.07Z"/></svg>