<svg xmlns="http://www.w3.org/2000/svg" xmlns:xlink="http://www.w3.org/1999/xlink" width="180" height="72"><path fill="#1E90FF" d="M4.32 49.08L10.02 49.08Q10.97 56.29 18.42 56.29L18.42 56.29Q25.91 56.29 25.91 51.01L25.91 51.01Q25.91 48.48 24.19 47.07L24.19 47.07Q22.36 45.56 17.65 43.91L17.65 43.91L16.63 43.52Q11.43 41.73 9.07 39.94L9.07 39.94Q5.70 37.30 5.70 33.57L5.70 33.57Q5.70 29.11 9.60 26.40L9.60 26.40Q12.97 24.08 17.79 24.08L17.79 24.08Q28.65 24.08 30.38 33.96L30.38 33.96L24.79 33.96Q23.91 28.69 17.72 28.69L17.72 28.69Q11.11 28.69 11.11 33.36L11.11 33.36Q11.11 36.42 19.97 39.55L19.97 39.55Q24.96 41.31 27.14 42.89L27.14 42.89Q31.39 45.91 31.39 50.87L31.39 50.87Q31.39 55.69 27.60 58.50L27.60 58.50Q24.01 61.10 18.28 61.10L18.28 61.10Q5.73 61.10 4.32 49.08L4.32 49.08ZM41.27 59.70L41.27 9.28L46.62 9.28L46.62 29.36Q51.86 24.12 57.02 24.12L57.02 24.12Q62.89 24.12 65.60 29.29L65.60 29.29Q67.11 32.20 67.11 36.35L67.11 36.35L67.11 59.70L61.77 59.70L61.77 37.93Q61.77 29.21 56.18 29.21L56.18 29.21Q52.42 29.21 49.57 31.96L49.57 31.96Q46.62 34.91 46.62 38.71L46.62 38.71L46.62 59.70L41.27 59.70ZM98.05 49.08L103.68 49.08Q100.55 61.10 90.07 61.10L90.07 61.10Q83.57 61.10 79.77 55.69L79.77 55.69Q76.32 50.73 76.32 42.61L76.32 42.61Q76.32 34.84 79.56 29.88L79.56 29.88Q83.36 24.12 90 24.12L90 24.12Q102.97 24.12 103.82 43.70L103.82 43.70L81.74 43.70Q82.16 56.29 90.14 56.29L90.14 56.29Q96.47 56.29 98.05 49.08L98.05 49.08ZM81.95 39.09L98.05 39.09Q96.89 28.93 90 28.93L90 28.93Q83.36 28.93 81.95 39.09L81.95 39.09ZM128.81 9.28L128.81 51.82Q128.81 54.91 131.77 54.91L131.77 54.91Q134.19 54.91 137.07 54.35L137.07 54.35L137.07 59.73Q132.82 60.33 130.82 60.33L130.82 60.33Q123.19 60.33 123.19 52.84L123.19 52.84L123.19 9.28L128.81 9.28ZM164.81 9.28L164.81 51.82Q164.81 54.91 167.77 54.91L167.77 54.91Q170.19 54.91 173.07 54.35L173.07 54.35L173.07 59.73Q168.82 60.33 166.82 60.33L166.82 60.33Q159.19 60.33 159.19 52.84L159.19 52.84L159.19 9.28L164.81 9.28Z"/></svg>