<svg xmlns="http://www.w3.org/2000/svg" xmlns:xlink="http://www.w3.org/1999/xlink" width="216" height="72"><path fill="#1E90FF" d="M4.32 49.08L10.02 49.08Q10.97 56.29 18.42 56.29L18.42 56.29Q25.91 56.29 25.91 51.01L25.91 51.01Q25.91 48.48 24.19 47.07L24.19 47.07Q22.36 45.56 17.65 43.91L17.65 43.91L16.63 43.52Q11.43 41.73 9.07 39.94L9.07 39.94Q5.70 37.30 5.70 33.57L5.70 33.57Q5.70 29.11 9.60 26.40L9.60 26.40Q12.97 24.08 17.79 24.08L17.79 24.08Q28.65 24.08 30.38 33.96L30.38 33.96L24.79 33.96Q23.91 28.69 17.72 28.69L17.72 28.69Q11.11 28.69 11.11 33.36L11.11 33.36Q11.11 36.42 19.97 39.55L19.97 39.55Q24.96 41.31 27.14 42.89L27.14 42.89Q31.39 45.91 31.39 50.87L31.39 50.87Q31.39 55.69 27.60 58.50L27.60 58.50Q24.01 61.10 18.28 61.10L18.28 61.10Q5.73 61.10 4.32 49.08L4.32 49.08ZM49.99 25.49L49.99 16.21L55.48 16.21L55.48 25.49L63.95 25.49L63.95 30.66L55.48 30.66L55.48 52.45Q55.48 54.91 58.22 54.91L58.22 54.91Q61.56 54.91 64.44 54.35L64.44 54.35L64.44 59.73Q60.19 60.33 57.13 60.33L57.13 60.33Q49.99 60.33 49.99 53.19L49.99 53.19L49.99 30.66L43.21 30.66L43.21 25.49L49.99 25.49ZM88.35 56.67L76.25 25.49L82.44 25.49L91.02 49.82L98.58 25.49L104.84 25.49L90.70 65.00Q89.54 68.45 86.70 69.54L86.70 69.54Q85.36 70.07 78.19 70.07L78.19 70.07L78.19 64.86L81.28 64.86Q82.37 64.86 82.86 64.86L82.86 64.86Q85.29 64.86 86.03 62.93L86.03 62.93L88.35 56.67ZM128.81 9.28L128.81 51.82Q128.81 54.91 131.77 54.91L131.77 54.91Q134.19 54.91 137.07 54.35L137.07 54.35L137.07 59.73Q132.82 60.33 130.82 60.33L130.82 60.33Q123.19 60.33 123.19 52.84L123.19 52.84L123.19 9.28L128.81 9.28ZM149.27 49.25L149.27 25.49L154.62 25.49L154.62 48.69Q154.62 56.11 160.49 56.11L160.49 56.11Q164.29 56.11 167.17 53.30L167.17 53.30Q169.77 50.80 169.77 46.72L169.77 46.72L169.77 25.49L175.11 25.49L175.11 59.70L171.14 59.70L170.19 55.65Q165.48 61.14 159.29 61.14L159.29 61.14Q153.91 61.14 151.21 57.02L151.21 57.02Q149.27 54 149.27 49.25L149.27 49.25ZM184.32 49.08L190.02 49.08Q190.97 56.29 198.42 56.29L198.42 56.29Q205.91 56.29 205.91 51.01L205.91 51.01Q205.91 48.48 204.19 47.07L204.19 47.07Q202.36 45.56 197.65 43.91L197.65 43.91L196.63 43.52Q191.43 41.73 189.07 39.94L189.07 39.94Q185.70 37.30 185.70 33.57L185.70 33.57Q185.70 29.11 189.60 26.40L189.60 26.40Q192.97 24.08 197.79 24.08L197.79 24.08Q208.65 24.08 210.38 33.96L210.38 33.96L204.79 33.96Q203.91 28.69 197.72 28.69L197.72 28.69Q191.11 28.69 191.11 33.36L191.11 33.36Q191.11 36.42 199.97 39.55L199.97 39.55Q204.96 41.31 207.14 42.89L207.14 42.89Q211.39 45.91 211.39 50.87L211.39 50.87Q211.39 55.69 207.60 58.50L207.60 58.50Q204.01 61.10 198.28 61.10L198.28 61.10Q185.73 61.10 184.32 49.08L184.32 49.08Z"/></svg>